<?xml version="1.0" encoding="UTF-8" standalone="no"?>
<svg
   xmlns:dc="http://purl.org/dc/elements/1.1/"
   xmlns:cc="http://creativecommons.org/ns#"
   xmlns:rdf="http://www.w3.org/1999/02/22-rdf-syntax-ns#"
   xmlns:svg="http://www.w3.org/2000/svg"
   xmlns="http://www.w3.org/2000/svg"
   xmlns:sodipodi="http://sodipodi.sourceforge.net/DTD/sodipodi-0.dtd"
   xmlns:inkscape="http://www.inkscape.org/namespaces/inkscape"
   viewBox="0 0 337.00001 600"
   height="600"
   width="337"
   xml:space="preserve"
   id="svg2"
   version="1.1"
   sodipodi:docname="Flag map of Terengganu.svg"
   inkscape:version="1.0 (4035a4fb49, 2020-05-01)"><sodipodi:namedview
     inkscape:document-rotation="0"
     pagecolor="#ffffff"
     bordercolor="#666666"
     borderopacity="1"
     objecttolerance="10"
     gridtolerance="10"
     guidetolerance="10"
     inkscape:pageopacity="0"
     inkscape:pageshadow="2"
     inkscape:window-width="1366"
     inkscape:window-height="705"
     id="namedview1453"
     showgrid="false"
     inkscape:showpageshadow="false"
     inkscape:zoom="0.33832946"
     inkscape:cx="591.17904"
     inkscape:cy="386.71855"
     inkscape:window-x="-8"
     inkscape:window-y="-8"
     inkscape:window-maximized="1"
     inkscape:current-layer="layer1" /><metadata
     id="metadata8"><rdf:RDF><cc:Work
         rdf:about=""><dc:format>image/svg+xml</dc:format><dc:type
           rdf:resource="http://purl.org/dc/dcmitype/StillImage" /><dc:title /></cc:Work></rdf:RDF></metadata><defs
     id="defs6"><clipPath
       id="clipPath18"
       clipPathUnits="userSpaceOnUse"><path
         style="clip-rule:evenodd"
         id="path16"
         d="M 0,1.8311e-4 H 1133.88 V 566.88018 H 0 Z" /></clipPath><clipPath
       id="clipPath30"
       clipPathUnits="userSpaceOnUse"><path
         style="clip-rule:evenodd"
         id="path28"
         d="M -1.2207e-4,566.88 H 1133.88 V 3.0518e-4 L 0,2.4414e-4" /></clipPath><clipPath
       clipPathUnits="userSpaceOnUse"
       id="clipPath2042"><path
         d="m 441.37073,553.34229 10.52656,13.03149 0.50628,0.50623 2.50635,-2.00485 15.03789,-9.0218 6.51651,-5.51332 6.01514,-7.01696 3.50888,-9.0218 3.00753,-4.5109 7.51894,-3.50848 51.63029,-40.5981 12.03038,-6.01454 12.02527,-2.50605 4.51142,-3.00727 15.0379,-13.0365 26.567,-29.56645 29.07335,-46.11143 10.0253,-24.05814 28.57208,-47.61506 16.5417,-30.57889 2.00508,-5.51332 1.00254,-2.00485 5.0126,-6.00952 1.50381,-3.01228 v -3.00727 l -2.00508,-8.52059 0.50628,-6.51574 2.50634,-12.02907 5.01261,-43.10418 -0.50628,-6.51574 -2.50626,-5.51833 -2.00007,-6.01454 3.50889,-12.53028 -0.50628,-4.00467 9.02276,-26.56419 1.00254,-9.02181 -1.00254,-3.01228 -4.01016,-10.02422 -2.00507,-3.50347 -2.00499,-1.50864 -4.01015,-5.01211 -1.00254,-1.999839 v -2.506053 l 2.00508,-7.518169 -2.00508,-3.012277 -1.50381,-0.997406 -1.50381,0.501207 -1.50872,1.002423 -4.01016,1.002423 -21.05313,0.501207 -0.99753,0.501216 -1.00254,0.506224 -0.50117,0.496199 -0.50127,0.506224 -0.50127,0.501207 -1.00254,0.501207 -2.50635,1.002423 h -0.50127 v -1.002423 l 1.00254,-5.513323 v -1.50363 l 0.50628,-4.009692 v -2.506054 l -0.50628,-2.009853 v -1.002423 l -0.50127,-1.002423 -1.00254,-1.99983 -0.50127,-0.506224 -1.50381,-1.002423 -0.50127,-1.002423 -0.50127,-1.002423 -1.00244,-6.515746 V 59.649273 58.64685 l 0.50127,-2.506053 v -1.002423 l 0.50628,-0.501216 0.50117,-1.002414 1.00254,-0.501216 1.50381,-1.002423 1.00254,-0.501207 0.50127,-0.506224 0.50628,-1.002423 0.50126,-1.50364 0.50127,-2.506053 v -1.002423 l -0.50127,-1.50363 -0.50126,-1.999829 -0.51129,-2.004846 v -1.002423 l 0.50628,-1.002424 0.50127,-1.503639 v -0.501207 l 2.50634,-4.510899 2.50626,-7.518169 v -1.002423 -1.50363 -1.002423 l -0.50127,-3.00727 -1.00245,-2.004846 -1.00254,-1.999829 -1.5038,-1.50363 -0.50628,-1.002423 -1.00254,-0.506224 -0.50127,-0.5012163 -0.50127,-1.0024231 V 8.0245247 L 675.9625,1.5087791 V 0.506356 L 675.46123,1.3227197e-4 673.95742,0.506356 l -2.00508,1.50363 -1.00244,1.5036394 -0.50127,1.0024231 -2.50635,6.5157455 -1.00254,1.50363 -3.50888,3.012277 -0.50127,1.503639 v 1.002414 l 0.50127,1.999839 v 1.002423 1.002423 l -0.50127,1.002423 -1.00254,1.50363 -4.51133,4.5109 -2.50635,3.007269 -1.00254,1.50363 -0.50628,1.503639 v 0.501207 l -0.50127,4.009693 -0.50627,1.002423 -0.99744,0.501207 h -2.50635 l -1.00254,-0.501207 -1.00254,-1.002423 h -0.99753 l -1.00254,0.501206 -1.00254,1.50364 -1.00244,0.997406 -0.50127,1.007431 v 2.004846 l -0.50127,1.002423 -1.00254,0.501216 -1.50381,-0.501216 -2.00508,-1.002423 h -1.00253 l -2.00508,0.501216 -6.51641,4.5109 -2.00508,1.002423 -1.50371,0.997406 -1.00254,0.506224 -1.00254,1.999829 -0.50127,0.506224 -1.00254,0.501216 -0.50127,0.506224 -0.50127,0.997406 -0.50127,1.002423 -0.50127,1.002423 -0.50628,0.501207 -1.00254,0.506224 -0.50126,0.501216 -10.0253,3.508476 -2.00498,1.50363 -1.50381,1.002423 -1.00254,1.002424 -1.50381,1.002423 -8.02022,1.503639 -4.01015,1.50363 -0.50628,0.501207 -1.00254,0.506224 -1.50371,1.002423 -4.00015,-0.511231 -15.53916,-6.515746 -3.01263,-0.501216 -1.00254,0.501216 -0.99753,0.501207 -0.50127,0.501216 -1.00244,0.501207 -0.99753,1.503639 -3.01263,4.5109 v 1.50363 l 0.50628,1.002423 3.50388,5.012116 0.50628,1.002423 0.50117,1.999829 1.00254,4.0147 v 2.506053 l -0.50127,5.012116 2.50635,11.021639 0.99753,5.0121 v 1.00744 l 0.50628,1.50363 1.50381,2.00485 2.50634,2.50605 1.00245,1.50363 1.50381,4.51091 0.50127,1.50363 1.50881,1.50363 2.50635,2.00485 1.50381,1.00242 1.50381,0.50122 h 1.50371 1.00254 l 2.50635,-0.50122 h 0.50127 2.00508 l 1.00254,0.99741 v 1.00744 l -1.50381,4.5109 v 1.50363 l 0.99753,2.50606 2.00498,4.00968 1.50381,4.0097 v 3.50847 l -2.01009,0.50122 -0.50127,1.00242 -0.50117,2.00484 -0.50628,3.00727 -0.50127,1.00242 -0.50127,1.50363 -9.52402,9.02682 -1.50381,0.50121 h -1.50381 l -0.50628,-0.50121 -1.00254,-0.50623 -0.50127,-0.5012 -0.50127,-1.00243 -0.49125,-2.00484 v -0.99741 l -1.00254,-0.50622 h -1.00244 l -0.50127,0.5012 -2.00007,1.50364 -0.50628,0.50121 -1.00254,0.50622 -0.99753,0.50121 h -3.50879 -1.00254 -2.50635 -0.50127 -1.00254 l -4.01006,0.50122 -1.00254,0.50622 -1.00254,1.00242 -2.00508,3.00726 -2.00007,2.00485 -2.50634,1.50364 -1.00245,1.50363 -1.00254,2.00484 -1.00254,5.51333 -0.99753,2.50605 v 2.50605 l 0.50127,2.50607 1.00254,1.00242 0.50127,1.00242 1.00254,0.50121 3.00752,1.00242 0.50628,0.50121 1.00254,0.50622 0.50127,0.50122 0.50127,1.00242 v 1.00243 l 0.50628,6.51574 0.50126,1.00242 1.00254,0.50121 0.50127,1.50363 v 1.50364 l -0.99753,3.50848 -0.50628,2.00484 -1.00253,1.99983 -0.50127,1.00243 -2.50635,3.01229 -5.0126,5.01212 -4.51143,0.9974 -8.02022,-0.50121 h -5.0126 l -5.01269,0.50121 -2.00499,0.50623 -1.5038,0.5012 -5.51397,1.50364 -3.03266,1.4886 -5.0126,4.00968 -4.50632,2.50607 -2.50635,3.00726 -6.01523,11.52786 1.50381,4.5109 -0.50127,2.00484 -2.50626,6.00953 -0.50627,1.50864 -1.00254,1.00243 -1.50882,2.00483 -0.50127,2.50606 -0.50127,4.00969 -0.49626,1.50364 -1.00254,1.00242 -2.00508,0.50121 -1.00244,0.50121 -14.53672,10.02423 -7.01267,3.00726 -1.00254,0.50622 h -1.00254 l -1.00254,-0.50622 -0.50127,-0.50121 -0.50127,-0.50121 -1.00755,-0.50121 -1.50371,-0.50121 -3.00762,1.50363 -1.50381,1.50363 -0.50127,1.00242 0.50127,5.51332 0.50127,2.50607 -0.50127,4.5109 -2.50634,8.01937 -0.50127,2.50605 -0.50127,1.00243 v 0.50121 0.50121 0.50122 l 0.50627,0.50622 0.50127,1.00242 0.50127,0.50121 1.00254,0.50121 h 1.00254 l 0.50127,1.00242 0.50628,1.50364 -3.50889,14.03892 v 1.50363 l 0.50127,1.00242 0.50628,0.50122 2.50635,0.50121 h 0.50127 l 0.50627,1.00242 v 1.00242 l 0.50127,1.00243 0.50127,0.50121 1.00254,2.00484 0.50628,1.00242 -0.52631,0.9924 -2.00508,1.50364 -3.01262,3.00726 -1.00254,1.00242 -0.50127,0.50122 h -0.99753 l -1.50372,1.00242 -1.00254,1.00243 -4.01015,4.50588 -1.00254,0.50622 -1.99998,1.00243 -1.50881,1.50363 -1.00254,0.50121 h -1.00254 -1.50381 l -1.00254,0.50623 -1.00254,0.5012 -1.00254,1.00243 -1.00254,0.50121 -4.01006,1.00243 -2.00007,1.00241 -0.50628,0.99742 v 1.00242 l 1.50381,5.0121 0.50628,2.00485 v 1.00242 1.00243 l -0.50628,4.5109 0.50628,16.53996 1.00254,6.52077 v 0.9974 l 3.50378,7.01696 1.50882,7.51816 -0.50628,2.50607 -1.00254,1.50363 -6.51641,5.01211 -4.50632,6.01453 -0.50628,1.50364 v 1.00242 l 1.00254,0.50121 0.50127,2.50605 v 4.5109 l -2.00007,17.04119 v 3.00726 l 2.50635,1.50364 0.50118,0.50622 v 0.99741 15.53755 l 0.50627,4.50589 v 2.00484 l -1.00244,2.50606 -0.50628,2.00484 -4.01016,16.03375 1.50381,3.50848 10.0253,10.53044 z"
         fill="#c12838"
         id="path2044"
         style="fill:none;stroke:none;stroke-width:5.01238" /></clipPath></defs><g
     sodipodi:insensitive="true"
     inkscape:groupmode="layer"
     id="layer1"
     inkscape:label="flag"
     style="display:inline"><g
       id="g2054"
       transform="translate(-431.5705)"
       style="stroke:none"><g
         clip-path="url(#clipPath2042)"
         id="g10"
         transform="matrix(1.0583129,0,0,-1.0584253,-3.3571735e-5,600.00014)"
         style="stroke:none"><g
           id="g12"
           style="stroke:none"><g
             id="g14"
             clip-path="url(#clipPath18)"
             style="stroke:none"><path
               d="M 0,6.1035e-5 H 1133.88 V 566.88006 H 0 Z"
               style="fill:#000000;fill-opacity:1;fill-rule:evenodd;stroke:none"
               id="path20" /></g></g><path
           d="m 662.16,378.91 v -72.93 l 69.48,-22.54 -69.48,-22.54 v -72.93 l -42.95,59 -69.48,-22.53 42.94,59 -42.94,59 69.48,-22.53 z m -107.37,57.17 c 10.53,0 20.81,-1.07 30.74,-3.1 l 2.23,-0.57 -12.35,-1.89 c -68.37,-14 -119.8,-74.53 -119.8,-147.08 0,-72.55 51.43,-133.08 119.8,-147.08 l 12.35,-1.89 -2.23,-0.57 c -9.93,-2.03 -20.21,-3.1 -30.74,-3.1 -84.25,0 -152.55,68.34 -152.55,152.64 0,84.3 68.3,152.64 152.55,152.64 z"
           style="fill:#ffffff;fill-opacity:1;fill-rule:evenodd;stroke:none"
           id="path22" /><g
           id="g24"
           style="stroke:none"><g
             id="g26"
             clip-path="url(#clipPath30)"
             style="stroke:none"><path
               d="M 94.033,472.85 V 94.034 H 1039.85 V 472.85 Z M 0.062256,566.88 H 1133.88 v 0 V 472.85 94.034 6.1035e-5 H 1039.85 94.033 0.062134 -1.2207e-4 V 566.88 Z"
               style="fill:#ffffff;fill-opacity:1;fill-rule:evenodd;stroke:none"
               id="path32" /></g></g></g></g></g><g
     sodipodi:insensitive="true"
     style="display:inline"
     inkscape:groupmode="layer"
     id="layer2"
     inkscape:label="map" /></svg>
